<?xml version="1.0" standalone="no"?>
<!DOCTYPE svg PUBLIC "-//W3C//DTD SVG 20010904//EN"
 "http://www.w3.org/TR/2001/REC-SVG-20010904/DTD/svg10.dtd">
<svg version="1.0" xmlns="http://www.w3.org/2000/svg"
 width="260.000000pt" height="260.000000pt" viewBox="0 0 260.000000 260.000000"
 preserveAspectRatio="xMidYMid meet">
<metadata>
Created by potrace 1.11, written by Peter Selinger 2001-2013
</metadata>
<g transform="translate(0.000000,260.000000) scale(0.100000,-0.100000)"
fill="#000000" stroke="none">
<path d="M1574 2590 c-5 -5 -24 -10 -41 -12 -17 -1 -29 -6 -27 -10 3 -5 10 -5
16 -2 7 4 8 2 4 -5 -4 -6 -11 -9 -16 -6 -12 7 -41 -36 -33 -48 4 -6 0 -8 -10
-4 -14 5 -17 0 -17 -26 0 -18 -6 -39 -12 -46 -10 -11 -10 -13 0 -7 9 5 12 -4
12 -36 0 -30 3 -39 9 -29 8 12 11 9 16 -12 4 -15 11 -27 16 -27 5 0 9 -7 9
-15 0 -9 10 -15 26 -15 14 0 23 -4 19 -9 -8 -14 77 -11 94 3 12 9 13 8 7 -2
-7 -11 -4 -12 12 -3 11 6 23 16 25 23 4 10 6 10 6 1 1 -7 6 -13 12 -13 6 0 9
7 5 15 -3 9 0 15 9 15 9 0 15 10 15 25 0 16 6 25 15 25 12 0 15 14 15 65 0 52
-3 65 -16 65 -8 0 -13 4 -10 9 3 5 -1 11 -9 15 -8 3 -15 16 -15 28 0 19 -2 20
-10 8 -8 -13 -13 -9 -12 10 0 3 -10 10 -24 17 -13 6 -22 7 -18 2 3 -5 1 -9 -5
-9 -5 0 -13 5 -16 10 -3 6 -11 10 -16 10 -6 0 -7 -6 -3 -12 6 -10 5 -10 -7 -1
-10 8 -19 9 -25 3z m176 -110 c0 -5 -2 -10 -4 -10 -3 0 -8 5 -11 10 -3 6 -1
10 4 10 6 0 11 -4 11 -10z"/>
<path d="M1270 2254 c0 -8 -4 -12 -10 -9 -5 3 -10 1 -10 -5 0 -7 -7 -10 -15
-6 -8 3 -14 0 -12 -7 1 -7 -4 -11 -11 -9 -22 4 -9 -32 16 -43 12 -5 22 -15 22
-22 0 -7 5 -13 11 -13 6 0 9 7 5 15 -3 10 1 15 14 15 10 0 22 5 25 11 8 11 67
8 76 -4 3 -4 15 -9 27 -10 11 0 20 -4 20 -7 -2 -19 3 -30 12 -25 6 4 10 3 9
-2 -4 -23 3 -43 14 -43 14 0 37 -40 37 -65 0 -8 7 -15 15 -15 13 0 21 -32 16
-63 -1 -5 3 -6 9 -2 9 5 16 -41 11 -69 -1 -5 5 -4 13 3 12 10 15 9 15 -6 0
-10 2 -29 4 -43 3 -14 5 -29 6 -33 0 -5 6 -5 11 -2 6 4 10 -13 10 -45 0 -32 4
-49 10 -45 6 3 10 2 10 -4 0 -5 -6 -12 -12 -14 -10 -4 -10 -6 0 -6 14 -1 16
-47 2 -56 -5 -3 -10 3 -10 14 0 12 -7 21 -15 21 -8 0 -15 5 -15 10 0 6 -7 10
-16 10 -10 0 -14 6 -10 15 3 9 0 15 -9 15 -8 0 -15 5 -15 10 0 6 -9 10 -20 10
-13 0 -18 5 -14 15 6 14 -12 21 -39 16 -5 -1 -6 3 -2 9 3 6 12 7 18 4 7 -4 8
-3 4 1 -4 5 -15 10 -25 11 -9 2 -18 8 -20 13 -2 6 -8 11 -13 11 -6 0 -8 -4 -5
-9 4 -5 -5 -4 -18 2 -15 7 -22 17 -18 27 5 13 4 13 -13 0 -11 -9 -16 -10 -11
-2 6 11 -18 18 -46 13 -5 0 -8 3 -8 9 0 5 -5 10 -11 10 -5 0 -7 -6 -3 -12 6
-10 4 -10 -7 0 -7 6 -30 12 -52 12 -21 0 -36 4 -32 9 3 5 0 13 -6 17 -7 4 -9
3 -5 -4 3 -6 2 -13 -4 -17 -5 -3 -10 2 -10 12 0 14 -2 15 -9 4 -7 -11 -9 -11
-14 0 -4 12 -7 12 -18 0 -12 -12 -12 -13 0 -6 9 5 12 4 8 -3 -8 -12 -36 -10
-45 4 -8 11 -47 12 -58 2 -3 -4 3 -6 14 -3 12 2 24 0 26 -4 3 -4 -7 -8 -22 -8
-93 -1 -123 -4 -118 -11 4 -7 -25 -13 -77 -15 -18 -1 -18 -2 0 -15 13 -10 14
-13 3 -12 -33 5 -61 -1 -55 -10 4 -6 -6 -10 -24 -10 -23 0 -29 -4 -25 -15 4
-10 0 -15 -14 -15 -10 0 -28 -11 -38 -25 -10 -14 -24 -25 -31 -25 -7 0 -13 -5
-13 -11 0 -14 -25 -39 -39 -39 -6 0 -11 -6 -11 -14 0 -8 -5 -16 -10 -18 -6 -2
-12 -13 -13 -25 0 -12 -4 -20 -9 -17 -4 2 -12 -5 -18 -16 -6 -11 -15 -18 -21
-15 -5 4 -9 -7 -9 -22 0 -16 -4 -33 -10 -39 -5 -5 -11 -22 -12 -37 -2 -28 -13
-36 -21 -14 -3 6 -6 -9 -6 -35 -1 -26 -5 -50 -11 -53 -5 -3 -10 -17 -10 -31 0
-13 -5 -23 -11 -21 -13 2 -21 -140 -9 -148 4 -3 6 9 5 25 -1 16 2 27 7 24 5
-3 7 -19 4 -35 -2 -16 -1 -29 4 -29 4 0 6 -10 2 -22 -3 -14 -2 -19 6 -14 16
10 15 -7 -1 -23 -6 -8 -7 -11 -1 -8 7 4 12 -6 13 -26 3 -54 4 -56 13 -51 5 3
5 11 2 17 -4 7 -3 8 2 4 10 -10 11 -14 13 -58 0 -17 5 -28 11 -24 6 4 10 -5
10 -19 0 -16 6 -26 15 -26 8 0 15 -9 15 -19 0 -11 4 -23 10 -26 5 -3 8 0 7 7
-2 7 1 3 7 -9 5 -13 13 -23 18 -23 4 0 8 -9 8 -21 0 -11 5 -17 10 -14 13 8 40
-19 40 -39 0 -10 6 -13 15 -10 8 4 15 1 15 -6 0 -16 26 -40 44 -40 8 0 18 -5
22 -12 5 -7 3 -8 -6 -3 -9 5 -11 4 -6 -3 4 -7 16 -12 27 -12 10 0 19 -4 19
-10 0 -5 12 -10 28 -10 19 0 23 -3 13 -9 -11 -7 -9 -10 8 -16 11 -3 35 -7 51
-7 17 -1 33 -6 37 -11 3 -6 1 -7 -5 -3 -7 4 -12 3 -12 -2 0 -6 -10 -8 -22 -5
-21 4 -21 3 -6 -9 14 -12 12 -14 -23 -15 -36 -2 -69 -20 -69 -39 0 -4 -8 -13
-17 -20 -17 -13 -17 -14 0 -8 10 4 17 3 16 -2 -5 -26 2 -45 14 -38 7 5 7 2 -2
-10 -12 -15 -12 -17 0 -14 16 3 15 -45 -1 -50 -6 -2 -10 -17 -10 -33 0 -18 4
-28 10 -24 10 6 14 -7 11 -32 -1 -7 3 -13 9 -13 6 0 9 4 5 9 -3 5 0 13 6 17 7
4 9 3 5 -4 -3 -6 -2 -13 3 -17 14 -8 2 -35 -13 -29 -7 3 -13 -7 -14 -28 -2
-18 -8 -36 -15 -40 -9 -6 -9 -8 1 -8 6 0 12 -7 12 -15 0 -8 7 -15 15 -15 8 0
15 -4 15 -10 0 -5 5 -10 11 -10 6 0 17 -7 25 -15 14 -13 87 -22 133 -16 8 2
10 -2 5 -11 -6 -10 -5 -10 9 0 25 21 42 9 44 -29 4 -52 5 -56 19 -56 7 0 10 6
7 14 -3 7 2 13 11 13 9 0 16 6 16 13 0 9 2 9 8 -1 6 -9 12 -6 20 13 6 14 16
25 22 25 6 0 8 6 4 13 -5 7 0 6 11 -3 11 -9 16 -10 11 -2 -7 11 17 16 86 16
14 -1 15 3 7 13 -9 10 -7 13 10 13 11 0 21 5 21 10 0 6 6 9 13 8 8 -2 12 13
12 52 l0 54 -37 4 c-29 3 -38 0 -38 -12 0 -10 -9 -16 -26 -16 -14 0 -23 -4
-20 -8 3 -5 -4 -16 -15 -26 -17 -14 -40 -17 -112 -17 -149 0 -197 3 -204 14
-4 6 0 8 9 5 8 -4 15 -1 15 7 0 7 -6 11 -14 8 -7 -3 -13 -1 -13 4 0 5 19 10
43 12 23 1 47 7 52 13 7 8 6 9 -2 4 -7 -4 -13 -3 -13 3 0 6 47 11 113 13 61 2
121 7 132 12 15 6 17 5 5 -3 -12 -8 -11 -10 7 -8 12 0 19 5 17 9 -5 7 41 13
76 9 13 -2 13 -1 0 9 -13 8 -11 11 8 16 12 4 22 14 22 23 0 14 2 14 10 1 5 -8
10 -10 11 -5 0 6 2 18 4 27 2 10 -8 25 -23 35 -29 19 -102 28 -102 12 0 -6 5
-7 10 -4 6 3 10 2 10 -3 0 -5 -12 -10 -27 -10 -70 1 -122 -6 -117 -14 3 -5 0
-9 -7 -7 -34 4 -80 -2 -74 -10 3 -5 0 -13 -6 -17 -7 -4 -9 -3 -5 4 3 6 2 13
-4 17 -5 3 -10 -1 -10 -11 0 -14 -2 -15 -17 -3 -11 10 -14 10 -9 2 5 -10 -7
-13 -48 -13 -53 0 -56 1 -56 25 0 20 5 25 28 26 15 1 34 0 42 -1 10 -1 9 3 -5
13 -14 11 -16 15 -5 15 8 -1 76 0 150 1 91 1 130 4 120 11 -8 5 -10 10 -5 10
6 0 16 -5 23 -12 9 -9 12 -9 12 0 0 7 6 12 13 11 6 -1 30 -1 52 0 28 1 36 4
26 10 -12 8 -9 11 13 17 25 6 27 10 24 48 -2 26 -7 40 -15 38 -7 -1 -13 2 -13
8 0 5 -14 10 -31 10 -17 0 -28 -4 -24 -10 7 -11 -23 -2 -42 12 -7 6 -14 4 -19
-3 -4 -8 -3 -9 4 -5 7 4 12 3 12 -2 0 -5 -30 -10 -67 -11 -46 -1 -71 -6 -79
-16 -6 -8 -31 -15 -62 -16 -28 -1 -49 -6 -46 -11 3 -5 -19 -8 -50 -7 -31 1
-56 7 -56 12 0 5 7 7 15 3 8 -3 15 -1 15 4 0 5 8 7 18 4 15 -5 15 -4 -2 10
-18 15 -18 15 5 14 50 -3 100 2 95 10 -3 5 1 9 9 9 8 0 11 -5 8 -11 -5 -8 -3
-8 8 0 14 11 42 15 116 17 22 1 39 6 36 10 -3 5 -11 6 -19 3 -7 -3 -16 -1 -18
3 -3 5 9 9 27 9 92 1 108 3 102 12 -4 6 -3 10 2 9 33 -6 73 3 73 16 0 9 9 15
24 15 13 0 26 5 28 10 2 6 13 12 26 13 12 0 22 5 22 10 0 13 24 34 35 30 6 -2
15 7 20 19 6 13 18 22 28 22 14 -2 15 1 6 13 -10 11 -10 14 2 11 8 -2 13 2 12
9 -2 7 3 10 10 8 7 -3 18 8 26 26 8 19 18 28 27 25 10 -4 14 3 14 25 0 18 4
28 10 24 6 -3 10 3 10 14 0 13 7 21 18 21 14 0 15 2 2 10 -10 6 -11 10 -2 10
6 0 12 7 12 15 0 8 6 15 13 15 8 0 7 4 -3 10 -10 6 -11 10 -2 10 7 0 12 15 12
40 0 26 4 40 13 40 14 0 16 13 18 130 0 36 6 71 12 79 9 12 9 13 0 7 -10 -5
-13 7 -13 48 0 31 1 58 3 61 1 2 -7 10 -17 18 -15 11 -16 16 -6 22 9 5 11 4 6
-3 -4 -7 -2 -12 3 -12 12 0 9 35 -4 47 -4 5 -5 2 -1 -4 4 -7 2 -13 -3 -13 -17
0 -13 18 7 30 16 11 16 11 0 6 -16 -5 -18 2 -18 49 0 29 -5 57 -10 60 -8 5 -7
11 1 21 8 10 8 14 0 14 -7 0 -11 19 -11 49 0 34 -4 51 -15 55 -18 7 -16 26 5
43 13 11 13 12 -2 7 -14 -5 -18 0 -19 17 -1 13 -1 28 0 33 1 4 -3 14 -9 21 -6
7 -11 37 -10 67 0 29 1 67 1 83 0 26 1 27 9 10 7 -17 9 -15 9 12 1 45 11 69
22 51 6 -9 9 -4 9 15 0 16 4 26 10 22 6 -3 10 1 10 9 0 9 9 16 20 16 11 0 23
7 26 15 4 8 14 15 23 15 10 0 21 3 25 7 10 11 37 12 30 2 -9 -15 23 -10 36 6
7 8 9 15 5 15 -4 0 -3 6 2 13 17 20 11 47 -11 52 -33 7 -106 2 -106 -8 0 -4 4
-6 9 -2 5 3 12 2 15 -3 2 -4 -5 -9 -17 -10 -45 -6 -53 -8 -73 -19 -12 -7 -25
-9 -29 -5 -5 4 -5 1 -1 -6 4 -7 13 -9 19 -6 7 4 8 3 4 -2 -5 -5 -13 -10 -18
-10 -5 -1 -13 -2 -19 -3 -5 0 -10 -8 -10 -17 0 -9 -5 -12 -12 -8 -9 5 -8 2 1
-9 12 -15 12 -17 -3 -11 -12 4 -16 0 -16 -16 0 -11 -4 -18 -10 -15 -6 4 -10
-5 -10 -19 0 -29 -24 -36 -34 -10 -3 8 -10 12 -16 9 -6 -4 -10 5 -10 20 0 15
-4 24 -10 20 -5 -3 -10 3 -10 14 0 12 -5 21 -11 21 -16 0 -36 24 -31 38 3 10
-2 13 -23 12 -3 -1 -13 6 -21 15 -9 8 -20 13 -25 9 -5 -3 -12 2 -15 10 -9 23
-134 23 -134 0z m-807 -971 c-6 -2 -10 -15 -7 -28 2 -13 1 -26 -3 -28 -5 -3
-8 12 -8 33 -1 29 3 36 14 32 9 -3 11 -7 4 -9z m667 -757 c0 -3 -4 -8 -10 -11
-5 -3 -10 -1 -10 4 0 6 5 11 10 11 6 0 10 -2 10 -4z m200 -136 c0 -5 -2 -10
-4 -10 -3 0 -8 5 -11 10 -3 6 -1 10 4 10 6 0 11 -4 11 -10z m-30 -150 c0 -5
-2 -10 -4 -10 -3 0 -8 5 -11 10 -3 6 -1 10 4 10 6 0 11 -4 11 -10z m-390 -120
c8 -5 11 -10 5 -10 -5 0 -17 5 -25 10 -8 5 -10 10 -5 10 6 0 17 -5 25 -10z"/>
<path d="M1410 2259 c0 -5 5 -7 10 -4 6 3 10 8 10 11 0 2 -4 4 -10 4 -5 0 -10
-5 -10 -11z"/>
<path d="M2090 1490 c0 -6 -6 -10 -12 -9 -27 3 -38 -2 -38 -16 0 -8 -6 -15
-13 -15 -21 0 -78 -31 -73 -39 3 -4 -5 -8 -17 -8 -12 -1 -23 -7 -25 -13 -2 -5
-16 -10 -30 -10 -19 0 -23 -3 -14 -9 11 -7 10 -10 -3 -15 -9 -3 -26 -6 -38 -6
-18 0 -19 -2 -7 -10 10 -6 11 -10 3 -10 -20 0 -15 -24 7 -38 17 -10 24 -10 43
3 13 8 27 12 30 8 4 -3 7 1 7 10 0 10 6 17 13 17 19 0 95 39 77 40 -13 0 -13
2 -1 9 8 5 21 7 29 3 10 -4 13 -1 8 7 -5 8 -3 12 5 10 31 -4 49 2 49 16 0 8 7
15 16 15 8 0 12 5 9 10 -3 6 1 10 9 10 21 0 20 20 -1 36 -22 16 -33 17 -33 4z"/>
<path d="M1807 1053 c5 -12 2 -15 -9 -10 -17 6 -19 -16 -3 -30 4 -4 5 -2 1 5
-4 6 -2 12 3 12 10 0 15 -13 13 -31 -1 -3 24 -7 55 -8 31 -1 63 -7 72 -14 12
-10 13 -9 6 3 -7 12 -6 13 6 3 12 -10 18 -10 29 0 8 7 10 8 7 1 -4 -7 3 -13
16 -16 41 -7 57 2 57 32 0 25 -3 28 -24 24 -14 -2 -27 0 -31 6 -3 6 1 7 9 4 9
-3 16 -1 16 5 0 10 -46 16 -97 11 -13 -1 -23 3 -23 9 0 6 -8 11 -17 11 -15 0
-16 -2 -3 -10 12 -7 10 -9 -7 -7 -12 0 -19 5 -17 9 3 4 -11 8 -30 8 -29 0 -34
-3 -29 -17z"/>
<path d="M2070 999 c0 -5 5 -7 10 -4 6 3 10 8 10 11 0 2 -4 4 -10 4 -5 0 -10
-5 -10 -11z"/>
<path d="M1699 823 c-26 -6 -32 -44 -8 -50 10 -3 19 -12 19 -19 0 -8 5 -14 10
-14 6 0 10 -6 10 -13 0 -8 11 -20 25 -27 14 -7 25 -19 25 -27 0 -7 5 -13 11
-13 14 0 39 -25 39 -39 0 -6 7 -11 15 -11 8 0 15 -4 15 -10 0 -5 7 -10 15 -10
8 0 15 -7 15 -15 0 -22 47 -19 52 3 7 24 -9 65 -22 57 -5 -3 -10 0 -10 8 0 8
-9 17 -21 20 -11 3 -23 15 -26 26 -5 18 -8 19 -21 9 -11 -9 -13 -9 -9 -1 4 6
3 14 -3 18 -6 4 -7 11 -4 17 4 7 2 8 -4 4 -7 -4 -12 -2 -12 3 0 6 -5 10 -12 9
-7 -2 -13 3 -14 10 -1 6 -2 17 -3 23 0 5 -5 7 -11 4 -5 -3 -10 1 -10 9 0 13
-31 39 -42 35 -2 -1 -10 -3 -19 -6z m51 -23 c0 -5 -2 -10 -4 -10 -3 0 -8 5
-11 10 -3 6 -1 10 4 10 6 0 11 -4 11 -10z"/>
<path d="M1875 680 c3 -5 8 -10 11 -10 2 0 4 5 4 10 0 6 -5 10 -11 10 -5 0 -7
-4 -4 -10z"/>
<path d="M1047 53 c-10 -9 -9 -23 1 -23 5 0 9 7 9 15 0 17 -1 18 -10 8z"/>
</g>
</svg>
